<?xml version="1.0" encoding="UTF-8" standalone="no"?>
<svg width="24px" height="24px" viewBox="0 0 24 24" version="1.1" xmlns="http://www.w3.org/2000/svg" xmlns:xlink="http://www.w3.org/1999/xlink">
    <!-- Generator: Sketch 3.8.1 (29687) - http://www.bohemiancoding.com/sketch -->
    <title>左侧菜单_i广播图标</title>
    <desc>Created with Sketch.</desc>
    <defs></defs>
    <g id="svg图标" stroke="none" stroke-width="1" fill="none" fill-rule="evenodd">
        <g id="左侧菜单_i广播图标" fill="#ffffff">
            <g id="media-color-2_radio" transform="translate(1.000000, 4.000000)">
                <path d="M11.5,11.5 C9.845705,11.5 8.5,10.154295 8.5,8.5 C8.5,6.845705 9.845705,5.5 11.5,5.5 C13.154295,5.5 14.5,6.845705 14.5,8.5 C14.5,10.154295 13.154295,11.5 11.5,11.5 L11.5,11.5 Z M11.5,7.5 C10.948485,7.5 10.5,7.948485 10.5,8.5 C10.5,9.051515 10.948485,9.5 11.5,9.5 C12.051515,9.5 12.5,9.051515 12.5,8.5 C12.5,7.948485 12.051515,7.5 11.5,7.5 Z M7.257325,13.742675 C7.00122,13.742675 6.74536,13.64502 6.55005,13.449705 C5.228025,12.12744 4.5,10.36963 4.5,8.5 C4.5,6.63037 5.228025,4.87256 6.55005,3.550295 C6.940675,3.15967 7.57373,3.159915 7.964355,3.55005 C8.35498,3.940675 8.35498,4.57373 7.9646,4.964355 C7.02002,5.908935 6.5,7.16455 6.5,8.5 C6.5,9.83545 7.02002,11.091065 7.9646,12.035645 C8.35498,12.42627 8.35498,13.059325 7.964355,13.44995 C7.769045,13.64502 7.513185,13.742675 7.257325,13.742675 Z M4.082765,16.917235 C3.827395,16.917235 3.572025,16.820065 3.376955,16.62573 C1.19922,14.456055 0,11.57031 0,8.5 C0,5.42969 1.19922,2.543945 3.376955,0.37427 C3.76831,-0.015135 4.40137,-0.013915 4.79126,0.376955 C5.18091,0.76831 5.17969,1.40137 4.788575,1.79126 C2.990235,3.582765 2,5.96533 2,8.5 C2,11.03467 2.990235,13.417235 4.788575,15.20874 C5.17969,15.598635 5.18091,16.23169 4.79126,16.623045 C4.595705,16.81909 4.339355,16.917235 4.082765,16.917235 Z M18.917235,16.917235 C18.660645,16.917235 18.404295,16.81909 18.20874,16.623045 C17.81909,16.23169 17.82031,15.59863 18.211425,15.20874 C20.009765,13.417235 21,11.03467 21,8.5 C21,5.96533 20.009765,3.582765 18.211425,1.79126 C17.82031,1.401365 17.81909,0.76831 18.20874,0.376955 C18.598635,-0.0144 19.23169,-0.015625 19.623045,0.37427 C21.80078,2.543945 23,5.42969 23,8.5 C23,11.57031 21.80078,14.456055 19.623045,16.62573 C19.42798,16.82007 19.172605,16.917235 18.917235,16.917235 Z M15.742675,13.742675 C15.486815,13.742675 15.230955,13.64502 15.035645,13.44995 C14.64502,13.059325 14.64502,12.42627 15.0354,12.035645 C15.97998,11.091065 16.5,9.83545 16.5,8.5 C16.5,7.16455 15.97998,5.908935 15.0354,4.964355 C14.64502,4.57373 14.64502,3.940675 15.035645,3.55005 C15.426515,3.15967 16.05957,3.159915 16.44995,3.550295 C17.771975,4.87256 18.5,6.63037 18.5,8.5 C18.5,10.36963 17.771975,12.12744 16.44995,13.449705 C16.25464,13.64502 15.998535,13.742675 15.742675,13.742675 Z" id="Combined-Shape"></path>
            </g>
        </g>
    </g>
</svg>